<?xml version="1.0" encoding="UTF-8"?>
<svg width="512px" height="512px" viewBox="0 0 512 512" version="1.1" xmlns="http://www.w3.org/2000/svg" xmlns:xlink="http://www.w3.org/1999/xlink">
    <!-- Generator: Sketch 51.3 (57544) - http://www.bohemiancoding.com/sketch -->
    <title>Mask</title>
    <desc>Created with Sketch.</desc>
    <defs>
        <rect id="path-1" x="0" y="0" width="512" height="512"></rect>
    </defs>
    <g id="Page-1" stroke="none" stroke-width="1" fill="none" fill-rule="evenodd">
        <g id="tomato_1-copy-2">
            <mask id="mask-2" fill="white">
                <use xlink:href="#path-1"></use>
            </mask>
            <g id="Mask"></g>
            <g mask="url(#mask-2)">
                <g transform="translate(44.000000, 31.000000)">
                    <path d="M422.932434,253.162766 C422.932434,361.872483 328.353882,450 211.685943,450 C95.0180054,450 0.439453125,361.872483 0.439453125,253.162766 C0.439453125,200.943374 22.2610474,153.479004 57.8670504,118.247222 C79.8568726,96.4874268 110.98938,86.5379338 141.514206,91.5882108 C162.783051,95.1072697 186.575317,97.0745089 211.685943,97.0745089 C236.79657,97.0745089 260.588837,95.1072697 281.857681,91.5882108 C312.382507,86.5379338 343.515015,96.4874268 365.504837,118.247222 C401.114273,153.479004 422.932434,200.943374 422.932434,253.162766 Z" id="Shape" fill="#FF6161" fill-rule="nonzero"></path>
                    <g id="Group" stroke-width="1" fill="none" fill-rule="evenodd" transform="translate(0.000000, 89.648438)">
                        <path d="M232.965088,359.366226 C225.964737,360.015107 218.864822,360.351562 211.685943,360.351562 C95.0214384,360.351562 0.439453125,272.224045 0.439453125,163.510894 C0.439453125,111.294937 22.2610474,63.8305664 57.8704834,28.6022188 C79.8534396,6.84242227 110.992813,-3.1070707 141.514206,1.93634033 C143.55011,2.27279707 145.616913,2.59552002 147.697449,2.90451094 C130.050659,6.77032471 113.598633,15.5628202 100.425339,28.6022188 C64.8159029,63.8305664 42.9943087,111.294937 42.9943087,163.510894 C42.9943087,265.532685 126.284409,349.423599 232.965088,359.366226 Z" id="Shape" fill="#F74343" fill-rule="nonzero"></path>
                    </g>
                    <path d="M141.133118,111.154175 C165.742493,126.888657 257.632828,126.888657 282.242203,111.154175 C313.711167,91.0285945 333.198166,65.2896879 325.765229,53.6647799 C318.33229,42.0433049 286.79123,48.9337919 255.318833,69.0593722 C252.894974,70.611191 250.53978,72.1973417 248.26355,73.8040922 C243.374634,77.2647855 236.666108,73.7869263 236.669541,67.7993774 C236.669541,67.7444458 236.669541,67.6929472 236.669541,67.6380155 C236.669541,30.2810669 225.484085,0 211.685943,0 C197.887802,0 186.702347,30.2810669 186.702347,67.6345825 L186.702347,67.7993774 C186.709213,73.7869263 180.000686,77.2613525 175.108337,73.8040922 C172.835541,72.1939087 170.480347,70.611191 168.053055,69.0593722 C136.580658,48.9337919 105.04303,42.0433049 97.6100924,53.6647799 C90.1737211,65.2896879 109.660721,91.0251615 141.133118,111.154175 Z" id="Shape" fill="#77BC4D" fill-rule="nonzero"></path>
                    <path d="M282.23877,111.150742 C257.629395,126.888657 165.745926,126.888657 141.136551,111.150742 C109.664154,91.0217285 90.1771541,65.2896879 97.6100924,53.6647799 C98.0083468,53.0502319 98.4718318,52.4803166 98.9971163,51.9824979 C105.180359,64.4039156 120.609283,79.9152372 141.136551,93.0438993 C165.745926,108.778381 257.629395,108.778381 282.23877,93.0438993 C302.762603,79.9152372 318.191528,64.4039156 324.378204,51.9824979 C324.900054,52.4803166 325.36354,53.0502319 325.761795,53.6647799 C333.194732,65.2896879 313.711167,91.0217285 282.23877,111.150742 Z" id="Shape" fill="#479838" fill-rule="nonzero"></path>
                </g>
            </g>
        </g>
    </g>
</svg>